<?xml version="1.0" encoding="utf-8"?>
<!-- Generator: Adobe Illustrator 26.0.3, SVG Export Plug-In . SVG Version: 6.00 Build 0)  -->
<svg version="1.1" id="Layer_1" xmlns="http://www.w3.org/2000/svg" xmlns:xlink="http://www.w3.org/1999/xlink" x="0px" y="0px"
	 viewBox="0 0 300 300" style="enable-background:new 0 0 300 300;" xml:space="preserve">
<style type="text/css">
	.st0{fill:#ED233F;}
	.st1{fill:#000048;}
</style>
<g>
	<g>
		<g>
			<g>
				<path class="st0" d="M69.4,211.9c1.1,0,2.3,0.6,3.4,1.2c17.3,0,8.4,44.1-9.3,44.1c-17.8,0-12.4-32.8-0.7-42.6
					C64.6,212.9,66.9,211.9,69.4,211.9z M75.4,221c-0.4-3.8-1.9-5.5-3.8-5.5s-3.7,1.6-4.8,3c-7.7,9.2-11.6,35.2-3.2,35.2
					C70.6,253.6,76.6,231.6,75.4,221z"/>
				<path class="st0" d="M95.5,221.5c-0.3,0.7-0.5,1.4-0.7,2.1c2.1,0,4.3,0.2,5.2,0.8c0.4,0.2,0.8,2.1,0.8,2.8
					c0,0.4-0.1,0.6-0.3,0.8c-0.1,0-0.1,0-0.2,0c-2-0.7-4.6-0.8-6.7-0.8c-2.4,8.2-4.7,18.5-5.6,24.8c-0.1,1.6,0.1,1.8,1.1,0.8
					c4.1-4.3,8.3-12.2,10.1-16.9c0.5-1.2,2.2-0.5,1.8,0.7c-1.8,4.7-9.4,20.3-15,20.3c-3.9,0-3.8-4.1-3.5-6.8
					c0.5-6.4,2.4-15.2,4.3-22.7c-0.5,0-1,0-1.6,0c-1.3,0-4.4,0.1-5.1-1.8c-0.2-0.5-0.1-0.8,0.6-0.8c2.3,0,4.6-0.3,6.8-0.5
					c0.5-1.8,0.9-3.7,1.6-5.3c0.7-1.7,1.4-2.6,2-2.6c1.4,0,5.6,1.7,5.6,2.9c0,0.1-0.1,0.2-0.2,0.4c-0.1,0.1-0.1,0.2-0.2,0.3
					C95.9,220.4,95.8,220.9,95.5,221.5z"/>
				<path class="st0" d="M100.8,230.1c0.2-0.5,0.6-0.9,1-0.9c1.4,0,3.7,1.3,4.6,2c0.7,0.5-0.1,1.4-0.4,2.2
					c-1.3,3.4-2.5,7.3-3.4,11.1c2.5-5.4,6.2-12,9.6-14.8c0.4-0.4,0.8-0.5,1.3-0.5c0.8,0,3.3,0.8,4.3,1.8c0.9,0.9,0.4,1.6-0.4,2.2
					c-2.4,2-3.5,5.5-3.7,8c-0.1,1.7,0.5,2.5,1.3,2.5c2.9,0,5.7-5.6,7.1-7.8c0.7-1,2.3-0.1,1.7,1c-1.6,2.5-4.5,8-7.8,9.2
					c-2.4,0.9-6.8-1.3-7.1-4.3c-0.2-2.1,0.8-5.4,1.9-7.5c0.3-0.6,0.1-0.5-0.2-0.1c-4.6,5.5-9.9,17.7-10.3,22.2
					c0,0.7-0.4,0.8-0.8,0.8c-1.7,0-4.4-1.9-4.4-3.4C95.5,246.4,97.9,236.8,100.8,230.1z"/>
				<path class="st0" d="M133.7,229.3c-2.9-1-5.2-0.8-6.7,0c-5.9,3.1-9.5,12.2-9.5,19.1c0,3.7,3,8.6,8,8.6c3.3,0,6.3-1.9,8.7-4.9
					c0,0,0,0,0-0.1c0.3-0.4,3.5-4.7,5-10.7c0.4-1.7,0.6-3.5,0.6-5.2C140,233.1,138.5,230.8,133.7,229.3z M129,251.1
					c-0.6,0.8-1.6,1.6-2.7,1.7c-0.7,0.1-1.6-0.1-2.1-0.7c-0.5-0.8-0.6-2-0.7-2.9c-0.1-2.1,0.3-4.3,0.8-6.3c0.7-3.1,2-6.4,4.1-8.7
					c2.5-2.7,5-2.5,5,2.2C133.4,240.7,131.5,247.4,129,251.1z"/>
				<path class="st0" d="M161.5,212c1.4,0,6.1,1.8,6.1,2.9c0,0.4-0.1,0.5-0.1,1c-0.2,9.8,0.4,19.5,1.8,29
					c1.9-13.7,6.8-32.8,9.2-32.8c1.4,0,6.1,1.8,6.1,2.9c0,0.1-0.1,0.3-0.1,0.4c-0.4,0.4-0.6,0.7-0.9,1.2c-4.1,7.4-9.5,33.1-9.5,39.8
					c0,0.5-0.2,0.8-0.8,0.8c-2.9,0-4.6-1.4-5-3c-2-8.5-3.9-20.3-4.3-30.5c-3.4,10.7-6.8,27.5-6.8,32.7c0,0.5-0.2,0.8-0.8,0.8
					c-1.7,0-4.6-1.6-4.6-3.1C151.6,242.2,158.6,212,161.5,212z"/>
				<path class="st0" d="M178.4,249.6c1-6.5,3-14,5.4-19.6c0.3-0.5,0.6-0.9,1-0.9c1.3,0,3.7,1.3,4.5,2c0.8,0.5-0.1,1.4-0.3,2.2
					c-2.4,6.1-4.4,14.3-5.3,19.3c-0.2,1,0.4,1,1,0.5c4.3-4.3,7.5-12.4,9.3-17.2c0.5-1.2,2.2-0.5,1.8,0.7
					c-1.8,4.7-7.9,20.3-13.9,20.3c-2.5,0-4.1-2.5-3.8-4.7C178.2,251.4,178.3,250.6,178.4,249.6z M191,214.6c0.8,0.1,2.8,1,4.1,1.9
					c1,0.7,1,1.6,0.3,2.9c-1.3,2.1-5,7.7-6.7,7.8c-4,0.1-0.3-8.9,0.6-10.6C189.9,215.3,190.4,214.6,191,214.6z"/>
				<path class="st0" d="M211.1,234.2c-1.1,2.6-2.6,5.8-4.4,9c0.5,0.3,1.3,0.4,2,0.3c2.2-0.4,4.3-2.7,6.9-7.6
					c0.6-1.1,2.3-0.2,1.7,0.9c-2.9,5.5-5.5,8.1-8.2,8.6c-1.3,0.2-2.4,0.1-3.3-0.5c-2.2,3.8-4.6,7.7-6.8,10.4
					c-0.6,0.8-1.7,1.7-2.7,1.7c-2.1,0-6-1.7-6-4c0-7.2,0.9-16.3,2.8-22.9c0.2-0.6,0.5-1,1.2-1c1.4,0,3.5,0.8,4.5,1.4
					c0.8,0.5,0.1,1.6-0.1,2.2c-1.4,5.5-3.1,15.2-3.4,20.1c-0.1,0.6,0.1,0.8,0.6,0.2c2.5-3.4,5.5-9.7,7.5-13.6
					c0.1-2.5,0.9-5.8,3.4-9.4c0.6-1,1.6-0.8,2.4-0.4C210.8,230.6,211.8,232.7,211.1,234.2z"/>
				<path class="st0" d="M222.3,228.9c2.6,0,7.3,3.5,7.3,6.7c0,6.5-7.6,11.5-13,11.5c-0.1,3.7,1,6.7,4.2,6.7
					c5.6,0,10.7-11.5,13.1-17.8c0.4-1.2,2.2-0.4,1.7,0.8c-2.5,6.8-8.1,20.3-16,20.3C202.9,257,212.3,228.9,222.3,228.9z
					 M216.8,245.5c3.8,0,8-5.6,8-11.2c0-1.4-1.2-2-2.2-1.1C219.7,235.1,217.4,240.7,216.8,245.5z"/>
				<path class="st0" d="M239.9,212c1.3,0,6.1,1.8,6.1,2.9c0,0.1-0.1,0.3-0.1,0.4c-0.4,0.4-0.6,0.7-0.9,1.2
					c-3.5,6.3-8,25.9-9.3,35.7c-0.1,1.6,0.1,1.8,1.2,0.8c4.1-4.3,7.1-12.2,8.9-16.9c0.5-1.2,2.3-0.5,1.8,0.7
					c-1.8,4.7-7.9,20.3-13.9,20.3c-3.8,0-3.8-4.1-3.5-6.8C231.2,236.7,237.2,212,239.9,212z"/>
			</g>
		</g>
		<g>
			<g>
				<path class="st1" d="M144.9,43c-8.6,0-16.8,4-23.2,9.4c-40.9,34.3-60,148.7,0.7,150.8c-0.4-0.2-0.8-0.4-1.1-0.7
					c-4.9-3-7.6-6.7-7.6-10.4c0-2.1,0.1-4.4,0.2-6.8c-15-20.4-1.4-91.2,21.9-118.8c0.6-0.8,1.3-1.6,2-2.3l0,0c0.5-1.6,1-3.1,1.6-4.4
					c3.1-8.7,5.6-13.7,7.8-16.4C146.3,43.1,145.6,43,144.9,43z M161,130.3c-4.4,18.4-11,36.1-18.8,47.6c-1.4,9.4-2.3,17.2-2.3,21.9
					c10.9-4.8,20.5-14.3,28.2-26.5C165.5,160.4,163,145.7,161,130.3z M177.2,55.3c-0.1,0.2-0.1,0.4-0.1,0.6
					c-0.1,0.4-0.2,0.7-0.2,1.2v0.1c-0.5,26,0.6,52.3,3.4,78.4c2.7-14.7,6-30.1,9.6-44.2C189.1,76.2,185.1,63.2,177.2,55.3z"/>
			</g>
		</g>
		<g>
			<path class="st0" d="M152.5,43.5c4.9,0,21.5,6.4,21.5,10.1c0,1.3-0.5,1.7-0.5,3.5c-0.7,34.9,1.5,69,6.4,102.6
				c6.7-48.7,24.2-116.2,32.7-116.2c4.9,0,21.5,6.4,21.5,10.1c0,0.5-0.2,1-0.5,1.3c-1.3,1.5-2.2,2.5-3.2,4.2
				c-14.6,26.2-33.9,117.2-33.9,140.9c0,2-0.7,2.9-2.9,2.9c-10.4,0-16.3-4.9-17.8-10.6c-7.1-29.9-13.8-71.8-15.3-108.1
				c-12.1,37.8-24,97.1-24,115.7c0,2-0.7,2.9-2.9,2.9c-5.9,0-16.3-5.5-16.3-10.9C117.1,150.3,142.1,43.5,152.5,43.5z"/>
		</g>
	</g>
</g>
</svg>
